<?xml version="1.0" encoding="utf-8"?>
<!-- Generator: Adobe Illustrator 25.0.0, SVG Export Plug-In . SVG Version: 6.00 Build 0)  -->
<svg version="1.1" id="Слой_1" xmlns="http://www.w3.org/2000/svg" xmlns:xlink="http://www.w3.org/1999/xlink" x="0px" y="0px"
	 viewBox="0 0 22 22" style="enable-background:new 0 0 22 22;" xml:space="preserve">
<style type="text/css">
	.st0{fill:#FF0000;}
</style>
<g>
	<g>
		<path class="st0" d="M18.2652626,8.2579651c-1.1854286-1.18543-3.1053934-1.187429-4.2883596-0.0044622
			c-0.9868078,0.9868069-1.1488428,2.4863758-0.4874067,3.6446924l-1.7060976,1.7060986V9.220439
			c1.2966881-0.3447542,2.2520227-1.5245056,2.2520227-2.9270992c0-1.6729665-1.3590317-3.0291731-3.0354815-3.0291731
			S7.964457,4.6203732,7.964457,6.2933397c0,1.3955588,0.9457784,2.5704899,2.2325387,2.9218369v4.3971891L8.5004511,11.915823
			c0.6731205-1.160677,0.5144348-2.6704092-0.4773493-3.6621943C6.8401356,7.0706635,4.9201717,7.0726609,3.7347417,8.258091
			s-1.1874273,3.1053944-0.0044611,4.2883587c0.9868081,0.9868097,2.486377,1.1488466,3.644695,0.4874086l2.8220201,2.8220196
			v2.8799582h1.5864029V15.847806l2.824132-2.824132c1.160677,0.6731186,2.6704082,0.5144329,3.6621933-0.4773502
			C19.4526901,11.3633566,19.4506931,9.4433947,18.2652626,8.2579651z"/>
		<g>
			<path class="st0" d="M11,21.4071026c-1.404707,0-2.7676811-0.2752399-4.0510798-0.8180752
				c-1.2393465-0.5241928-2.3522625-1.2745075-3.3078518-2.2300949c-0.9555893-0.9555893-1.7059023-2.0685062-2.2300954-3.3078527
				C0.8681371,13.7676811,0.5928982,12.404707,0.5928982,11s0.2752389-2.7676811,0.8180748-4.0510802
				c0.524193-1.2393465,1.2745061-2.352262,2.2300954-3.3078516s2.0685053-1.7059026,3.3078518-2.2300954
				C8.2323189,0.8681367,9.595293,0.5928978,11,0.5928978s2.7676821,0.2752389,4.0510807,0.8180749
				c1.2393456,0.5241929,2.3522606,1.2745057,3.3078518,2.2300954c0.9555893,0.9555895,1.7059116,2.068505,2.2300949,3.3078516
				C21.1318741,8.2323189,21.4071026,9.5952921,21.4071026,11s-0.2752285,2.7676811-0.8180752,4.0510798
				c-0.5241833,1.2393465-1.2745056,2.3522635-2.2300949,3.3078527c-0.9555912,0.9555874-2.0685062,1.7059021-3.3078518,2.2300949
				C13.7676821,21.1318626,12.404707,21.4071026,11,21.4071026z M11,1.7147793
				c-5.1198893,0-9.2852201,4.1653314-9.2852201,9.2852211S5.8801107,20.2852192,11,20.2852192S20.2852211,16.1198902,20.2852211,11
				S16.1198883,1.7147793,11,1.7147793z"/>
		</g>
	</g>
</g>
</svg>
